# xmcd CD database file
#
# Track frame offsets:
#	180
#	14180
#	26569
#	41073
#	53627
#	71217
#	83773
#	100112
#	112675
#	126045
#
# Disc length: 1905 seconds
#
# Revision: 0
# Processed by: cddbd v1.4PL0 Copyright (c) Steve Scherf et al.
# Submitted via: CDex 1.50beta10
#
DISCID=7e076f0a
DTITLE=Merle Haggard - The Way I Am
DYEAR=1994
DGENRE=Country
TTITLE0=Always Wanting You
TTITLE1=If We Make It Through December
TTITLE2=I'm A Lonesome Fugitive
TTITLE3=I'm Always On A Mountain (When I Fall)
TTITLE4=I Think I'll Just Stay Here And Drink
TTITLE5=It's Been A Great Afternoon
TTITLE6=Ramblin' Fever
TTITLE7=Silver Wings
TTITLE8=The Way I Am
TTITLE9=Today I Started Loving You Again
EXTD=YEAR: 1994
EXTT0=
EXTT1=
EXTT2=
EXTT3=
EXTT4=
EXTT5=
EXTT6=
EXTT7=
EXTT8=
EXTT9=
PLAYORDER=
